<svg width="31" height="30" viewBox="0 0 31 30" fill="none" xmlns="http://www.w3.org/2000/svg">
<path d="M10.4463 10L10.4463 8.75C10.4463 5.98858 12.6849 3.75 15.4463 3.75V3.75C18.2077 3.75 20.4463 5.98858 20.4463 8.75L20.4463 10" stroke="white" stroke-width="2.5" stroke-linecap="round"/>
<path d="M19.1963 17.5V15" stroke="white" stroke-width="2.5" stroke-linecap="round"/>
<path d="M11.6963 17.5V15" stroke="white" stroke-width="2.5" stroke-linecap="round"/>
<path d="M5.44629 15C5.44629 12.643 5.44629 11.4645 6.17852 10.7322C6.91076 10 8.08927 10 10.4463 10H20.4463C22.8033 10 23.9818 10 24.7141 10.7322C25.4463 11.4645 25.4463 12.643 25.4463 15V16.25C25.4463 20.964 25.4463 23.3211 23.9818 24.7855C22.5174 26.25 20.1603 26.25 15.4463 26.25V26.25C10.7322 26.25 8.37522 26.25 6.91076 24.7855C5.44629 23.3211 5.44629 20.964 5.44629 16.25V15Z" stroke="white" stroke-width="2.5"/>
</svg>
