<svg width="22" height="12" viewBox="0 0 22 12" fill="none" xmlns="http://www.w3.org/2000/svg">
<rect x="0.0273438" y="0.613281" width="21.8594" height="10.4297" rx="2.57228" fill="#3276E8" fill-opacity="0.1"/>
<path d="M3.82229 7.32812V3.72693H4.99011C5.41196 3.72693 5.75836 3.80067 6.02931 3.94815C6.30369 4.09563 6.50604 4.30484 6.63637 4.57579C6.77013 4.8433 6.83701 5.16227 6.83701 5.53267C6.83701 5.89965 6.77013 6.21862 6.63637 6.48956C6.50604 6.75708 6.30369 6.96458 6.02931 7.11205C5.75836 7.2561 5.41196 7.32812 4.99011 7.32812H3.82229ZM4.36762 6.86511H4.96953C5.29535 6.86511 5.55258 6.81195 5.74122 6.70563C5.93328 6.59931 6.07047 6.44669 6.15278 6.24777C6.23852 6.04884 6.28139 5.81048 6.28139 5.53267C6.28139 5.25487 6.23852 5.01479 6.15278 4.81244C6.07047 4.61008 5.93328 4.45575 5.74122 4.34943C5.55258 4.23968 5.29535 4.1848 4.96953 4.1848H4.36762V6.86511ZM9.10125 7.38986C8.74457 7.38986 8.43246 7.31098 8.16494 7.15321C7.89743 6.99544 7.68822 6.77766 7.53731 6.49985C7.3864 6.21862 7.31095 5.89451 7.31095 5.52753C7.31095 5.16055 7.3864 4.83816 7.53731 4.56035C7.68822 4.27912 7.89743 4.05962 8.16494 3.90185C8.43246 3.74408 8.74457 3.6652 9.10125 3.6652C9.45794 3.6652 9.77005 3.74408 10.0376 3.90185C10.3051 4.05962 10.5126 4.27912 10.6601 4.56035C10.811 4.83816 10.8864 5.16055 10.8864 5.52753C10.8864 5.89451 10.811 6.21862 10.6601 6.49985C10.5126 6.77766 10.3051 6.99544 10.0376 7.15321C9.77005 7.31098 9.45794 7.38986 9.10125 7.38986ZM9.10125 6.90113C9.34819 6.90113 9.56255 6.84625 9.74432 6.7365C9.92953 6.62675 10.0736 6.46898 10.1765 6.2632C10.2794 6.05742 10.3308 5.8122 10.3308 5.52753C10.3308 5.24286 10.2794 4.99764 10.1765 4.79186C10.0736 4.58608 9.92953 4.42831 9.74432 4.31856C9.56255 4.20881 9.34819 4.15393 9.10125 4.15393C8.85432 4.15393 8.63824 4.20881 8.45304 4.31856C8.26784 4.42831 8.12379 4.58608 8.0209 4.79186C7.92144 4.99764 7.87171 5.24286 7.87171 5.52753C7.87171 5.8122 7.92144 6.05742 8.0209 6.2632C8.12379 6.46898 8.26784 6.62675 8.45304 6.7365C8.63824 6.84625 8.85432 6.90113 9.10125 6.90113ZM13.099 7.38986C12.7423 7.38986 12.4337 7.31269 12.173 7.15835C11.9158 7.00059 11.7168 6.7828 11.5762 6.505C11.4356 6.22376 11.3653 5.89965 11.3653 5.53267C11.3653 5.16227 11.4356 4.83816 11.5762 4.56035C11.7168 4.27912 11.9158 4.05962 12.173 3.90185C12.4337 3.74408 12.7423 3.6652 13.099 3.6652C13.5209 3.6652 13.8656 3.76809 14.1331 3.97387C14.4006 4.17966 14.5704 4.46775 14.6424 4.83816H14.0353C13.9873 4.62895 13.8844 4.46261 13.7267 4.33914C13.5689 4.21567 13.358 4.15393 13.0939 4.15393C12.7338 4.15393 12.4491 4.2774 12.2399 4.52434C12.0307 4.76785 11.9261 5.10396 11.9261 5.53267C11.9261 5.95796 12.0307 6.29235 12.2399 6.53586C12.4491 6.77937 12.7338 6.90113 13.0939 6.90113C13.358 6.90113 13.5689 6.84282 13.7267 6.72621C13.8844 6.6096 13.9873 6.45012 14.0353 6.24777H14.6424C14.5704 6.60446 14.4006 6.88398 14.1331 7.08633C13.8656 7.28868 13.5209 7.38986 13.099 7.38986ZM14.9613 7.32812L16.0725 5.50695L14.951 3.72693H15.5735L16.4223 5.07481L17.2146 3.72693H17.8268L16.7104 5.53267L17.8422 7.32812H17.2197L16.3657 5.96996L15.5735 7.32812H14.9613Z" fill="#3276E8"/>
</svg>
