<svg width="27" height="27" viewBox="0 0 27 27" fill="none" xmlns="http://www.w3.org/2000/svg">
<path d="M5.03211 15.8616L12.5482 22.9222C12.8071 23.1654 12.9366 23.287 13.0892 23.317C13.1579 23.3305 13.2286 23.3305 13.2974 23.317C13.45 23.287 13.5795 23.1654 13.8384 22.9222L21.3545 15.8616C23.4692 13.8751 23.726 10.606 21.9474 8.3136L21.613 7.88256C19.4853 5.14019 15.2145 5.6001 13.7194 8.73259C13.5082 9.17507 12.8784 9.17507 12.6672 8.73259C11.1721 5.6001 6.90129 5.14019 4.77359 7.88256L4.43916 8.3136C2.66058 10.606 2.91738 13.8751 5.03211 15.8616Z" fill="#" stroke="#222222" stroke-width="2.1621"/>
</svg>
