<svg width="23" height="23" viewBox="0 0 23 23" fill="none" xmlns="http://www.w3.org/2000/svg">
<path d="M12.4542 2.01953H12.7028C15.6752 2.01953 17.1615 2.01953 18.1936 2.74673C18.4893 2.95509 18.7519 3.20218 18.9733 3.48051C19.7459 4.45194 19.7459 5.85075 19.7459 8.64838V10.9685C19.7459 13.6693 19.7459 15.0197 19.3185 16.0983C18.6314 17.8322 17.1782 19.1999 15.3359 19.8466C14.1899 20.2489 12.7551 20.2489 9.8855 20.2489C8.24571 20.2489 7.42581 20.2489 6.77098 20.019C5.71825 19.6494 4.88786 18.8679 4.49522 17.8771C4.25098 17.2608 4.25098 16.4891 4.25098 14.9458V11.1342" stroke="#3276E8" stroke-width="1.15133" stroke-linecap="round" stroke-linejoin="round"/>
<path d="M19.746 11.1343C19.746 12.8122 18.3858 14.1725 16.7078 14.1725C16.101 14.1725 15.3855 14.0662 14.7955 14.2243C14.2713 14.3647 13.8618 14.7742 13.7213 15.2984C13.5632 15.8885 13.6696 16.6039 13.6696 17.2107C13.6696 18.8887 12.3093 20.2489 10.6313 20.2489" stroke="#3276E8" stroke-width="1.15133" stroke-linecap="round" stroke-linejoin="round"/>
<path d="M10.6311 5.6654L3.33936 5.6654M6.98522 2.01953V9.31126" stroke="#3276E8" stroke-width="1.15133" stroke-linecap="round"/>
</svg>
