<svg width="16" height="20" viewBox="0 0 16 20" fill="none" xmlns="http://www.w3.org/2000/svg">
<path d="M8 0.588236C5.05882 0.588236 2.70588 2.94118 2.70588 5.88235V8.23529C1.70588 8.23529 0.941177 9 0.941177 10V17.6471C0.941177 18.6471 1.70588 19.4118 2.70588 19.4118H13.2941C14.2941 19.4118 15.0588 18.6471 15.0588 17.6471V10C15.0588 9 14.2941 8.23529 13.2941 8.23529V5.88235C13.2941 2.94118 10.9412 0.588236 8 0.588236ZM13.8824 10V17.6471C13.8824 18 13.6471 18.2353 13.2941 18.2353H2.70588C2.35294 18.2353 2.11765 18 2.11765 17.6471V10C2.11765 9.64706 2.35294 9.41177 2.70588 9.41177H3.29412H12.7059H13.2941C13.6471 9.41177 13.8824 9.64706 13.8824 10ZM3.88235 8.23529V5.88235C3.88235 3.58824 5.70588 1.76471 8 1.76471C10.2941 1.76471 12.1176 3.58824 12.1176 5.88235V8.23529H3.88235Z" fill="#FEE567"/>
<path d="M8 11.1765C7 11.1765 6.23529 11.9412 6.23529 12.9412C6.23529 13.7059 6.70588 14.3529 7.41176 14.5882V15.8824C7.41176 16.2353 7.64706 16.4706 8 16.4706C8.35294 16.4706 8.58823 16.2353 8.58823 15.8824V14.5882C9.29411 14.3529 9.7647 13.7059 9.7647 12.9412C9.7647 11.9412 9 11.1765 8 11.1765ZM8 13.5294C7.64706 13.5294 7.41176 13.2941 7.41176 12.9412C7.41176 12.5882 7.64706 12.3529 8 12.3529C8.35294 12.3529 8.58823 12.5882 8.58823 12.9412C8.58823 13.2941 8.35294 13.5294 8 13.5294Z" fill="#FEE567"/>
</svg>
