<svg width="27" height="12" viewBox="0 0 27 12" fill="none" xmlns="http://www.w3.org/2000/svg">
<rect x="0.817872" y="0.827638" width="25.4307" height="10.001" rx="2.35792" stroke="#3276E8" stroke-opacity="0.1" stroke-width="0.428713"/>
<path d="M4.40876 6.63361L5.61773 5.46065L4.40876 4.28769H5.09813L6.30195 5.46065L5.09813 6.63361H4.40876ZM8.68758 7.32812V4.34428L8.10625 4.47804V4.07676L8.90365 3.72693H9.25348V7.32812H8.68758ZM11.4256 7.38986C11.0998 7.38986 10.8186 7.31269 10.5819 7.15835C10.3487 7.00059 10.1686 6.7828 10.0417 6.505C9.91826 6.22376 9.85652 5.89794 9.85652 5.52753C9.85652 5.15712 9.91826 4.83301 10.0417 4.55521C10.1686 4.27397 10.3487 4.05619 10.5819 3.90185C10.8186 3.74408 11.0998 3.6652 11.4256 3.6652C11.7514 3.6652 12.031 3.74408 12.2642 3.90185C12.4974 4.05619 12.6757 4.27397 12.7992 4.55521C12.9261 4.83301 12.9896 5.15712 12.9896 5.52753C12.9896 5.89794 12.9261 6.22376 12.7992 6.505C12.6757 6.7828 12.4974 7.00059 12.2642 7.15835C12.031 7.31269 11.7514 7.38986 11.4256 7.38986ZM11.4256 6.90113C11.6211 6.90113 11.7943 6.84625 11.9452 6.7365C12.0995 6.62675 12.2196 6.46898 12.3053 6.2632C12.3911 6.05742 12.4339 5.8122 12.4339 5.52753C12.4339 5.24286 12.3911 4.99764 12.3053 4.79186C12.2196 4.58608 12.0995 4.42831 11.9452 4.31856C11.7943 4.20881 11.6211 4.15393 11.4256 4.15393C11.2267 4.15393 11.0518 4.20881 10.9009 4.31856C10.75 4.42831 10.6316 4.58608 10.5459 4.79186C10.4601 4.99764 10.4173 5.24286 10.4173 5.52753C10.4173 5.8122 10.4601 6.05742 10.5459 6.2632C10.6316 6.46898 10.75 6.62675 10.9009 6.7365C11.0518 6.84625 11.2267 6.90113 11.4256 6.90113ZM14.8936 7.32812V3.72693H15.5366L16.7559 6.1243L17.97 3.72693H18.6131V7.32812H18.0678V4.66839L16.9668 6.81367H16.545L15.4389 4.67353V7.32812H14.8936ZM19.3448 7.32812V3.72693H20.703C21.0768 3.72693 21.3598 3.81439 21.5518 3.98931C21.7439 4.16422 21.8399 4.38372 21.8399 4.64781C21.8399 4.8776 21.7782 5.06109 21.6547 5.19828C21.5313 5.33204 21.3821 5.42292 21.2071 5.47094C21.3443 5.49838 21.4661 5.55325 21.5724 5.63557C21.6822 5.71788 21.7679 5.82077 21.8296 5.94424C21.8914 6.06771 21.9222 6.20147 21.9222 6.34551C21.9222 6.53072 21.8759 6.69877 21.7833 6.84968C21.6942 6.99716 21.5621 7.11377 21.3872 7.19951C21.2123 7.28525 20.9979 7.32812 20.7441 7.32812H19.3448ZM19.8901 5.2703H20.6361C20.8453 5.2703 21.0048 5.22229 21.1145 5.12625C21.2243 5.02679 21.2792 4.89132 21.2792 4.71983C21.2792 4.55178 21.2243 4.41802 21.1145 4.31856C21.0082 4.2191 20.8453 4.16937 20.6258 4.16937H19.8901V5.2703ZM19.8901 6.88055H20.6721C20.8916 6.88055 21.0614 6.8291 21.1814 6.72621C21.3049 6.62332 21.3666 6.47927 21.3666 6.29407C21.3666 6.10886 21.3032 5.9631 21.1763 5.85678C21.0494 5.74703 20.8779 5.69216 20.6618 5.69216H19.8901V6.88055Z" fill="#3276E8"/>
</svg>
