<svg width="27" height="16" viewBox="0 0 27 16" fill="none" xmlns="http://www.w3.org/2000/svg">
<rect x="0.622559" y="0.208984" width="25.4762" height="15.2381" rx="3.92857" fill="#3276E8" fill-opacity="0.1"/>
<path d="M6.41821 10.8281V5.32812H8.34321C8.77273 5.32812 9.12892 5.40146 9.41178 5.54812C9.69464 5.68955 9.90416 5.88598 10.0404 6.13741C10.1818 6.3836 10.2525 6.66384 10.2525 6.97812C10.2525 7.2767 10.1844 7.5517 10.0482 7.80312C9.91726 8.04932 9.71035 8.24574 9.42749 8.39241C9.14464 8.53908 8.78321 8.61241 8.34321 8.61241H7.25107V10.8281H6.41821ZM7.25107 7.92884H8.30392C8.69678 7.92884 8.97702 7.84503 9.14464 7.67741C9.31749 7.50455 9.40392 7.27146 9.40392 6.97812C9.40392 6.67432 9.31749 6.4386 9.14464 6.27098C8.97702 6.09812 8.69678 6.0117 8.30392 6.0117H7.25107V7.92884ZM11.0757 10.8281V5.32812H12.8593C13.5036 5.32812 14.0326 5.44074 14.4464 5.66598C14.8655 5.89122 15.1745 6.21074 15.3736 6.62455C15.5779 7.03312 15.68 7.52027 15.68 8.08598C15.68 8.64646 15.5779 9.1336 15.3736 9.54741C15.1745 9.95598 14.8655 10.2729 14.4464 10.4981C14.0326 10.7181 13.5036 10.8281 12.8593 10.8281H11.0757ZM11.9086 10.121H12.8279C13.3255 10.121 13.7183 10.0398 14.0064 9.87741C14.2998 9.71503 14.5093 9.48193 14.635 9.17812C14.766 8.87432 14.8314 8.51027 14.8314 8.08598C14.8314 7.6617 14.766 7.29503 14.635 6.98598C14.5093 6.67693 14.2998 6.44122 14.0064 6.27884C13.7183 6.11122 13.3255 6.02741 12.8279 6.02741H11.9086V10.121ZM16.6003 10.8281V5.32812H20.0496V6.00384H17.4331V7.74027H19.6017V8.40812H17.4331V10.8281H16.6003Z" fill="#3276E8"/>
</svg>
