<svg width="26" height="21" viewBox="0 0 26 21" fill="none" xmlns="http://www.w3.org/2000/svg">
<path d="M2.5 8.25L1.52773 9.22227L0.555455 8.25L1.52773 7.27773L2.5 8.25ZM25.875 19.25C25.875 20.0094 25.2594 20.625 24.5 20.625C23.7406 20.625 23.125 20.0094 23.125 19.25L25.875 19.25ZM8.40273 16.0973L1.52773 9.22227L3.47227 7.27773L10.3473 14.1527L8.40273 16.0973ZM1.52773 7.27773L8.40273 0.402729L10.3473 2.34727L3.47227 9.22227L1.52773 7.27773ZM2.5 6.875L16.25 6.875L16.25 9.625L2.5 9.625L2.5 6.875ZM25.875 16.5L25.875 19.25L23.125 19.25L23.125 16.5L25.875 16.5ZM16.25 6.875C21.5657 6.875 25.875 11.1843 25.875 16.5L23.125 16.5C23.125 12.703 20.047 9.625 16.25 9.625L16.25 6.875Z" fill="#33363F"/>
</svg>
