<svg width="17" height="22" viewBox="0 0 17 22" fill="none" xmlns="http://www.w3.org/2000/svg">
<path d="M16.8769 21.88H14.7969V19.8C14.7969 18.9725 14.4682 18.1789 13.883 17.5938C13.2979 17.0087 12.5044 16.68 11.6769 16.68H5.43688C4.6094 16.68 3.81582 17.0087 3.2307 17.5938C2.64559 18.1789 2.31688 18.9725 2.31688 19.8V21.88H0.236877V19.8C0.236877 18.4209 0.784733 17.0982 1.75992 16.1231C2.73511 15.1479 4.05775 14.6 5.43688 14.6H11.6769C13.056 14.6 14.3786 15.1479 15.3538 16.1231C16.329 17.0982 16.8769 18.4209 16.8769 19.8V21.88ZM8.55688 12.52C7.73743 12.52 6.926 12.3586 6.16893 12.045C5.41186 11.7314 4.72397 11.2718 4.14453 10.6924C3.56509 10.1129 3.10546 9.42502 2.79187 8.66795C2.47828 7.91088 2.31688 7.09946 2.31688 6.28001C2.31688 5.46056 2.47828 4.64913 2.79187 3.89206C3.10546 3.13499 3.56509 2.4471 4.14453 1.86766C4.72397 1.28822 5.41186 0.828589 6.16893 0.515C6.926 0.201411 7.73743 0.0400085 8.55688 0.0400085C10.2118 0.0400086 11.799 0.697435 12.9692 1.86766C14.1394 3.03789 14.7969 4.62506 14.7969 6.28001C14.7969 7.93496 14.1394 9.52213 12.9692 10.6924C11.799 11.8626 10.2118 12.52 8.55688 12.52V12.52ZM8.55688 10.44C9.66018 10.44 10.7183 10.0017 11.4984 9.22157C12.2786 8.44142 12.7169 7.38331 12.7169 6.28001C12.7169 5.17671 12.2786 4.11859 11.4984 3.33844C10.7183 2.55829 9.66018 2.12001 8.55688 2.12001C7.45358 2.12001 6.39546 2.55829 5.61531 3.33844C4.83516 4.11859 4.39688 5.17671 4.39688 6.28001C4.39688 7.38331 4.83516 8.44142 5.61531 9.22157C6.39546 10.0017 7.45358 10.44 8.55688 10.44V10.44Z" fill="white"/>
</svg>
