<svg width="28" height="29" viewBox="0 0 28 29" fill="none" xmlns="http://www.w3.org/2000/svg">
<path d="M23.0977 8.35354L16.459 3.7087C14.6494 2.44088 11.8718 2.51004 10.1314 3.85854L4.35703 8.36506C3.20447 9.26406 2.29395 11.1082 2.29395 12.5604V20.5131C2.29395 23.4521 4.67975 25.8495 7.61879 25.8495H20.0434C22.9825 25.8495 25.3683 23.4636 25.3683 20.5246V12.7102C25.3683 11.1543 24.3655 9.24101 23.0977 8.35354ZM14.6955 21.2392C14.6955 21.7118 14.3037 22.1036 13.8311 22.1036C13.3586 22.1036 12.9667 21.7118 12.9667 21.2392V17.7815C12.9667 17.309 13.3586 16.9171 13.8311 16.9171C14.3037 16.9171 14.6955 17.309 14.6955 17.7815V21.2392Z" fill="#FFFFFF"/>
</svg>
